<svg xmlns="http://www.w3.org/2000/svg" width="135.963" height="46.642" viewBox="0 0 135.963 46.642">
  <g id="logo" transform="translate(-134 -47.765)">
    <text id="Get_SeT" data-name="Get&amp;SeT" transform="translate(134 89)" font-size="23" font-family="Tahoma-Bold, Tahoma" font-weight="700"><tspan x="0" y="0">Get&amp;SeT</tspan></text>
    <path id="Path_20" data-name="Path 20" d="M6.147.587c3.4.324,6.41,3.06,6.734,6.11l2.167,20.394c.324,3.05-2.165,5.261-5.56,4.936s-6.41-3.06-6.734-6.11L.587,5.523C.263,2.473,2.752.263,6.147.587Z" transform="translate(260.373 47) rotate(59)" fill="#20a9f8"/>
    <path id="Path_19" data-name="Path 19" d="M6.147.587c3.4.324,6.41,3.06,6.734,6.11l1.02,9.6,1.147,10.79c.324,3.05-2.165,5.261-5.56,4.936s-6.41-3.06-6.734-6.11L.587,5.523C.263,2.473,2.752.263,6.147.587Z" transform="translate(262.674 64.972) rotate(59)" fill="#5ae5a9"/>
  </g>
</svg>
